<svg width="121" height="16" viewBox="0 0 121 16" version="1.1" xmlns="http://www.w3.org/2000/svg" xmlns:xlink="http://www.w3.org/1999/xlink">
<title>Frame 6</title>
<desc>Created using Figma</desc>
<g id="Canvas" transform="translate(158 280)">
<clipPath id="clip-0" clip-rule="evenodd">
<path d="M -157.358 -280L -37.3584 -280L -37.3584 -264L -157.358 -264L -157.358 -280Z" fill="#FFFFFF"/>
</clipPath>
<g id="Frame 6" clip-path="url(#clip-0)">
<g id="Group">
<g id="Path">
<use xlink:href="#path0_fill" transform="translate(-72 -277)"/>
</g>
<g id="Path">
<use xlink:href="#path1_fill" transform="translate(-70.0387 -274)"/>
</g>
<g id="Path">
<use xlink:href="#path2_fill" transform="translate(-68.0505 -271.041)"/>
</g>
</g>
<g id="Group">
<g id="Oval 1">
<use xlink:href="#path3_fill" transform="translate(-154 -275)"/>
</g>
<g id="Oval 1 copy">
<use xlink:href="#path3_fill" transform="translate(-147 -275)"/>
</g>
<g id="Oval 1 copy 2">
<use xlink:href="#path3_fill" transform="translate(-140 -275)"/>
</g>
<g id="Shape">
<use xlink:href="#path4_fill" transform="translate(-133 -275)"/>
</g>
<g id="Shape">
<use xlink:href="#path4_fill" transform="translate(-126 -275)"/>
</g>
</g>
<g id="Figma">
<use xlink:href="#path5_fill" transform="translate(-118 -280)"/>
</g>
</g>
</g>
<defs>
<path id="path0_fill" fill-rule="evenodd" d="M 5.99575 1.52088C 7.93552 1.52088 9.70336 2.23545 11.0589 3.40718L 12 2.36811C 10.3946 0.974466 8.29789 0 5.99575 0C 3.69711 0 1.6034 0.971507 0 2.36071L 0.939148 3.40126C 2.29364 2.23299 4.05848 1.52088 5.99575 1.52088Z"/>
<path id="path1_fill" fill-rule="evenodd" d="M 4.03449 1.51989C 5.19705 1.51989 6.25915 1.94203 7.07835 2.63737L 8.07397 1.53764C 6.99038 0.607562 5.58091 0 4.03449 0C 2.49107 0 1.08259 0.606082 0 1.53321L 0.994127 2.63441C 1.81282 1.94055 2.87342 1.51989 4.03449 1.51989Z"/>
<path id="path2_fill" fill-rule="evenodd" d="M 4.09396 0.778685C 3.53967 0.318575 2.82594 0 2.04573 0C 1.26702 0 0.554292 0.318082 0 0.776219L 2.04573 3.04126L 4.09396 0.778685Z"/>
<path id="path3_fill" fill-rule="evenodd" d="M 2.75 5.5C 4.26878 5.5 5.5 4.26878 5.5 2.75C 5.5 1.23122 4.26878 0 2.75 0C 1.23122 0 0 1.23122 0 2.75C 0 4.26878 1.23122 5.5 2.75 5.5Z"/>
<path id="path4_fill" fill-rule="evenodd" d="M 2.75 5C 3.99264 5 5 3.99264 5 2.75C 5 1.50736 3.99264 0.5 2.75 0.5C 1.50736 0.5 0.5 1.50736 0.5 2.75C 0.5 3.99264 1.50736 5 2.75 5ZM 2.75 5.5C 1.23122 5.5 0 4.26878 0 2.75C 0 1.23122 1.23122 0 2.75 0C 4.26878 0 5.5 1.23122 5.5 2.75C 5.5 4.26878 4.26878 5.5 2.75 5.5Z"/>
<path id="path5_fill" d="M 7.17773 2.39258L 7.17773 3.41797L 4.27734 3.41797L 4.27734 11L 3.09375 11L 3.09375 3.41797L 0.193359 3.41797L 0.193359 2.39258L 7.17773 2.39258ZM 10.7227 4.58398C 11.168 4.58398 11.5996 4.68945 12.0176 4.90039C 12.4355 5.10742 12.7539 5.37695 12.9727 5.70898C 13.1836 6.02539 13.3242 6.39453 13.3945 6.81641C 13.457 7.10547 13.4883 7.56641 13.4883 8.19922L 8.88867 8.19922C 8.9082 8.83594 9.05859 9.34766 9.33984 9.73438C 9.62109 10.1172 10.0566 10.3086 10.6465 10.3086C 11.1973 10.3086 11.6367 10.127 11.9648 9.76367C 12.1523 9.55273 12.2852 9.30859 12.3633 9.03125L 13.4004 9.03125C 13.373 9.26172 13.2813 9.51953 13.125 9.80469C 12.9727 10.0859 12.8008 10.3164 12.6094 10.4961C 12.2891 10.8086 11.8926 11.0195 11.4199 11.1289C 11.166 11.1914 10.8789 11.2227 10.5586 11.2227C 9.77734 11.2227 9.11523 10.9395 8.57227 10.373C 8.0293 9.80273 7.75781 9.00586 7.75781 7.98242C 7.75781 6.97461 8.03125 6.15625 8.57812 5.52734C 9.125 4.89844 9.83984 4.58398 10.7227 4.58398ZM 12.4043 7.36133C 12.3613 6.9043 12.2617 6.53906 12.1055 6.26562C 11.8164 5.75781 11.334 5.50391 10.6582 5.50391C 10.1738 5.50391 9.76758 5.67969 9.43945 6.03125C 9.11133 6.37891 8.9375 6.82227 8.91797 7.36133L 12.4043 7.36133ZM 14.8184 2.39258L 15.873 2.39258L 15.873 11L 14.8184 11L 14.8184 2.39258ZM 20.0742 4.58398C 20.5195 4.58398 20.9512 4.68945 21.3691 4.90039C 21.7871 5.10742 22.1055 5.37695 22.3242 5.70898C 22.5352 6.02539 22.6758 6.39453 22.7461 6.81641C 22.8086 7.10547 22.8398 7.56641 22.8398 8.19922L 18.2402 8.19922C 18.2598 8.83594 18.4102 9.34766 18.6914 9.73438C 18.9727 10.1172 19.4082 10.3086 19.998 10.3086C 20.5488 10.3086 20.9883 10.127 21.3164 9.76367C 21.5039 9.55273 21.6367 9.30859 21.7148 9.03125L 22.752 9.03125C 22.7246 9.26172 22.6328 9.51953 22.4766 9.80469C 22.3242 10.0859 22.1523 10.3164 21.9609 10.4961C 21.6406 10.8086 21.2441 11.0195 20.7715 11.1289C 20.5176 11.1914 20.2305 11.2227 19.9102 11.2227C 19.1289 11.2227 18.4668 10.9395 17.9238 10.373C 17.3809 9.80273 17.1094 9.00586 17.1094 7.98242C 17.1094 6.97461 17.3828 6.15625 17.9297 5.52734C 18.4766 4.89844 19.1914 4.58398 20.0742 4.58398ZM 21.7559 7.36133C 21.7129 6.9043 21.6133 6.53906 21.457 6.26562C 21.168 5.75781 20.6855 5.50391 20.0098 5.50391C 19.5254 5.50391 19.1191 5.67969 18.791 6.03125C 18.4629 6.37891 18.2891 6.82227 18.2695 7.36133L 21.7559 7.36133ZM 24.1406 4.72461L 25.1426 4.72461L 25.1426 5.61523C 25.4395 5.24805 25.7539 4.98438 26.0859 4.82422C 26.418 4.66406 26.7871 4.58398 27.1934 4.58398C 28.084 4.58398 28.6855 4.89453 28.998 5.51562C 29.1699 5.85547 29.2559 6.3418 29.2559 6.97461L 29.2559 11L 28.1836 11L 28.1836 7.04492C 28.1836 6.66211 28.127 6.35352 28.0137 6.11914C 27.8262 5.72852 27.4863 5.5332 26.9941 5.5332C 26.7441 5.5332 26.5391 5.55859 26.3789 5.60938C 26.0898 5.69531 25.8359 5.86719 25.6172 6.125C 25.4414 6.33203 25.3262 6.54688 25.2715 6.76953C 25.2207 6.98828 25.1953 7.30273 25.1953 7.71289L 25.1953 11L 24.1406 11L 24.1406 4.72461ZM 33.4336 4.58398C 33.8789 4.58398 34.3105 4.68945 34.7285 4.90039C 35.1465 5.10742 35.4648 5.37695 35.6836 5.70898C 35.8945 6.02539 36.0352 6.39453 36.1055 6.81641C 36.168 7.10547 36.1992 7.56641 36.1992 8.19922L 31.5996 8.19922C 31.6191 8.83594 31.7695 9.34766 32.0508 9.73438C 32.332 10.1172 32.7676 10.3086 33.3574 10.3086C 33.9082 10.3086 34.3477 10.127 34.6758 9.76367C 34.8633 9.55273 34.9961 9.30859 35.0742 9.03125L 36.1113 9.03125C 36.084 9.26172 35.9922 9.51953 35.8359 9.80469C 35.6836 10.0859 35.5117 10.3164 35.3203 10.4961C 35 10.8086 34.6035 11.0195 34.1309 11.1289C 33.877 11.1914 33.5898 11.2227 33.2695 11.2227C 32.4883 11.2227 31.8262 10.9395 31.2832 10.373C 30.7402 9.80273 30.4688 9.00586 30.4688 7.98242C 30.4688 6.97461 30.7422 6.15625 31.2891 5.52734C 31.8359 4.89844 32.5508 4.58398 33.4336 4.58398ZM 35.1152 7.36133C 35.0723 6.9043 34.9727 6.53906 34.8164 6.26562C 34.5273 5.75781 34.0449 5.50391 33.3691 5.50391C 32.8848 5.50391 32.4785 5.67969 32.1504 6.03125C 31.8223 6.37891 31.6484 6.82227 31.6289 7.36133L 35.1152 7.36133ZM 37.7109 2.97266L 38.7773 2.97266L 38.7773 4.72461L 39.7793 4.72461L 39.7793 5.58594L 38.7773 5.58594L 38.7773 9.68164C 38.7773 9.90039 38.8516 10.0469 39 10.1211C 39.082 10.1641 39.2188 10.1855 39.4102 10.1855C 39.4609 10.1855 39.5156 10.1855 39.5742 10.1855C 39.6328 10.1816 39.7012 10.1758 39.7793 10.168L 39.7793 11C 39.6582 11.0352 39.5312 11.0605 39.3984 11.0762C 39.2695 11.0918 39.1289 11.0996 38.9766 11.0996C 38.4844 11.0996 38.1504 10.9746 37.9746 10.7246C 37.7988 10.4707 37.7109 10.1426 37.7109 9.74023L 37.7109 5.58594L 36.8613 5.58594L 36.8613 4.72461L 37.7109 4.72461L 37.7109 2.97266Z"/>
</defs>
</svg>
