<svg width="320" height="24" viewBox="0 0 320 24" version="1.1" xmlns="http://www.w3.org/2000/svg" xmlns:xlink="http://www.w3.org/1999/xlink">
<title>Status Bar</title>
<desc>Created using Figma</desc>
<g id="Canvas" transform="translate(160 284)">
<clipPath id="clip-0" clip-rule="evenodd">
<path d="M -160 -284L 160 -284L 160 -260L -160 -260L -160 -284Z" fill="#FFFFFF"/>
</clipPath>
<g id="Status Bar" clip-path="url(#clip-0)">
<path d="M -160 -284L 160 -284L 160 -260L -160 -260L -160 -284Z" fill="#FFFFFF"/>
<clipPath id="clip-1" clip-rule="evenodd">
<path d="M -157.358 -280L -37.3584 -280L -37.3584 -264L -157.358 -264L -157.358 -280Z" fill="#FFFFFF"/>
</clipPath>
<g id="Frame 6" clip-path="url(#clip-1)">
<g id="Group">
<g id="Path">
<use xlink:href="#path0_fill" transform="translate(-72 -277)"/>
</g>
<g id="Path">
<use xlink:href="#path1_fill" transform="translate(-70.0387 -274)"/>
</g>
<g id="Path">
<use xlink:href="#path2_fill" transform="translate(-68.0505 -271.041)"/>
</g>
</g>
<g id="Group">
<g id="Oval 1">
<use xlink:href="#path3_fill" transform="translate(-154 -275)"/>
</g>
<g id="Oval 1 copy">
<use xlink:href="#path3_fill" transform="translate(-147 -275)"/>
</g>
<g id="Oval 1 copy 2">
<use xlink:href="#path3_fill" transform="translate(-140 -275)"/>
</g>
<g id="Shape">
<use xlink:href="#path4_fill" transform="translate(-133 -275)"/>
</g>
<g id="Shape">
<use xlink:href="#path4_fill" transform="translate(-126 -275)"/>
</g>
</g>
<g id="Figma">
<use xlink:href="#path5_fill" transform="translate(-118 -280)"/>
</g>
</g>
<clipPath id="clip-2" clip-rule="evenodd">
<path d="M 69.6416 -282L 157.642 -282L 157.642 -264L 69.6416 -264L 69.6416 -282Z" fill="#FFFFFF"/>
</clipPath>
<g id="Frame 8" clip-path="url(#clip-2)">
<g id="Group">
<g id="Shape">
<use xlink:href="#path6_fill" transform="translate(129.5 -277.5)"/>
</g>
<g id="Charge">
<use xlink:href="#path7_fill" transform="translate(130.5 -276.5)"/>
</g>
<g id="+">
<use xlink:href="#path8_fill" transform="translate(152.5 -274)"/>
</g>
</g>
<g id="42%">
<use xlink:href="#path9_fill" transform="translate(91 -280)"/>
</g>
</g>
<g id="9:42 AM">
<use xlink:href="#path10_fill" transform="translate(-25 -279.5)"/>
</g>
</g>
</g>
<defs>
<path id="path0_fill" fill-rule="evenodd" d="M 5.99575 1.52088C 7.93552 1.52088 9.70336 2.23545 11.0589 3.40718L 12 2.36811C 10.3946 0.974466 8.29789 0 5.99575 0C 3.69711 0 1.6034 0.971507 0 2.36071L 0.939148 3.40126C 2.29364 2.23299 4.05848 1.52088 5.99575 1.52088Z"/>
<path id="path1_fill" fill-rule="evenodd" d="M 4.03449 1.51989C 5.19705 1.51989 6.25915 1.94203 7.07835 2.63737L 8.07397 1.53764C 6.99038 0.607562 5.58091 0 4.03449 0C 2.49107 0 1.08259 0.606082 0 1.53321L 0.994127 2.63441C 1.81282 1.94055 2.87342 1.51989 4.03449 1.51989Z"/>
<path id="path2_fill" fill-rule="evenodd" d="M 4.09396 0.778685C 3.53967 0.318575 2.82594 0 2.04573 0C 1.26702 0 0.554292 0.318082 0 0.776219L 2.04573 3.04126L 4.09396 0.778685Z"/>
<path id="path3_fill" fill-rule="evenodd" d="M 2.75 5.5C 4.26878 5.5 5.5 4.26878 5.5 2.75C 5.5 1.23122 4.26878 0 2.75 0C 1.23122 0 0 1.23122 0 2.75C 0 4.26878 1.23122 5.5 2.75 5.5Z"/>
<path id="path4_fill" fill-rule="evenodd" d="M 2.75 5C 3.99264 5 5 3.99264 5 2.75C 5 1.50736 3.99264 0.5 2.75 0.5C 1.50736 0.5 0.5 1.50736 0.5 2.75C 0.5 3.99264 1.50736 5 2.75 5ZM 2.75 5.5C 1.23122 5.5 0 4.26878 0 2.75C 0 1.23122 1.23122 0 2.75 0C 4.26878 0 5.5 1.23122 5.5 2.75C 5.5 4.26878 4.26878 5.5 2.75 5.5Z"/>
<path id="path5_fill" d="M 7.17773 2.39258L 7.17773 3.41797L 4.27734 3.41797L 4.27734 11L 3.09375 11L 3.09375 3.41797L 0.193359 3.41797L 0.193359 2.39258L 7.17773 2.39258ZM 10.7227 4.58398C 11.168 4.58398 11.5996 4.68945 12.0176 4.90039C 12.4355 5.10742 12.7539 5.37695 12.9727 5.70898C 13.1836 6.02539 13.3242 6.39453 13.3945 6.81641C 13.457 7.10547 13.4883 7.56641 13.4883 8.19922L 8.88867 8.19922C 8.9082 8.83594 9.05859 9.34766 9.33984 9.73438C 9.62109 10.1172 10.0566 10.3086 10.6465 10.3086C 11.1973 10.3086 11.6367 10.127 11.9648 9.76367C 12.1523 9.55273 12.2852 9.30859 12.3633 9.03125L 13.4004 9.03125C 13.373 9.26172 13.2813 9.51953 13.125 9.80469C 12.9727 10.0859 12.8008 10.3164 12.6094 10.4961C 12.2891 10.8086 11.8926 11.0195 11.4199 11.1289C 11.166 11.1914 10.8789 11.2227 10.5586 11.2227C 9.77734 11.2227 9.11523 10.9395 8.57227 10.373C 8.0293 9.80273 7.75781 9.00586 7.75781 7.98242C 7.75781 6.97461 8.03125 6.15625 8.57812 5.52734C 9.125 4.89844 9.83984 4.58398 10.7227 4.58398ZM 12.4043 7.36133C 12.3613 6.9043 12.2617 6.53906 12.1055 6.26562C 11.8164 5.75781 11.334 5.50391 10.6582 5.50391C 10.1738 5.50391 9.76758 5.67969 9.43945 6.03125C 9.11133 6.37891 8.9375 6.82227 8.91797 7.36133L 12.4043 7.36133ZM 14.8184 2.39258L 15.873 2.39258L 15.873 11L 14.8184 11L 14.8184 2.39258ZM 20.0742 4.58398C 20.5195 4.58398 20.9512 4.68945 21.3691 4.90039C 21.7871 5.10742 22.1055 5.37695 22.3242 5.70898C 22.5352 6.02539 22.6758 6.39453 22.7461 6.81641C 22.8086 7.10547 22.8398 7.56641 22.8398 8.19922L 18.2402 8.19922C 18.2598 8.83594 18.4102 9.34766 18.6914 9.73438C 18.9727 10.1172 19.4082 10.3086 19.998 10.3086C 20.5488 10.3086 20.9883 10.127 21.3164 9.76367C 21.5039 9.55273 21.6367 9.30859 21.7148 9.03125L 22.752 9.03125C 22.7246 9.26172 22.6328 9.51953 22.4766 9.80469C 22.3242 10.0859 22.1523 10.3164 21.9609 10.4961C 21.6406 10.8086 21.2441 11.0195 20.7715 11.1289C 20.5176 11.1914 20.2305 11.2227 19.9102 11.2227C 19.1289 11.2227 18.4668 10.9395 17.9238 10.373C 17.3809 9.80273 17.1094 9.00586 17.1094 7.98242C 17.1094 6.97461 17.3828 6.15625 17.9297 5.52734C 18.4766 4.89844 19.1914 4.58398 20.0742 4.58398ZM 21.7559 7.36133C 21.7129 6.9043 21.6133 6.53906 21.457 6.26562C 21.168 5.75781 20.6855 5.50391 20.0098 5.50391C 19.5254 5.50391 19.1191 5.67969 18.791 6.03125C 18.4629 6.37891 18.2891 6.82227 18.2695 7.36133L 21.7559 7.36133ZM 24.1406 4.72461L 25.1426 4.72461L 25.1426 5.61523C 25.4395 5.24805 25.7539 4.98438 26.0859 4.82422C 26.418 4.66406 26.7871 4.58398 27.1934 4.58398C 28.084 4.58398 28.6855 4.89453 28.998 5.51562C 29.1699 5.85547 29.2559 6.3418 29.2559 6.97461L 29.2559 11L 28.1836 11L 28.1836 7.04492C 28.1836 6.66211 28.127 6.35352 28.0137 6.11914C 27.8262 5.72852 27.4863 5.5332 26.9941 5.5332C 26.7441 5.5332 26.5391 5.55859 26.3789 5.60938C 26.0898 5.69531 25.8359 5.86719 25.6172 6.125C 25.4414 6.33203 25.3262 6.54688 25.2715 6.76953C 25.2207 6.98828 25.1953 7.30273 25.1953 7.71289L 25.1953 11L 24.1406 11L 24.1406 4.72461ZM 33.4336 4.58398C 33.8789 4.58398 34.3105 4.68945 34.7285 4.90039C 35.1465 5.10742 35.4648 5.37695 35.6836 5.70898C 35.8945 6.02539 36.0352 6.39453 36.1055 6.81641C 36.168 7.10547 36.1992 7.56641 36.1992 8.19922L 31.5996 8.19922C 31.6191 8.83594 31.7695 9.34766 32.0508 9.73438C 32.332 10.1172 32.7676 10.3086 33.3574 10.3086C 33.9082 10.3086 34.3477 10.127 34.6758 9.76367C 34.8633 9.55273 34.9961 9.30859 35.0742 9.03125L 36.1113 9.03125C 36.084 9.26172 35.9922 9.51953 35.8359 9.80469C 35.6836 10.0859 35.5117 10.3164 35.3203 10.4961C 35 10.8086 34.6035 11.0195 34.1309 11.1289C 33.877 11.1914 33.5898 11.2227 33.2695 11.2227C 32.4883 11.2227 31.8262 10.9395 31.2832 10.373C 30.7402 9.80273 30.4688 9.00586 30.4688 7.98242C 30.4688 6.97461 30.7422 6.15625 31.2891 5.52734C 31.8359 4.89844 32.5508 4.58398 33.4336 4.58398ZM 35.1152 7.36133C 35.0723 6.9043 34.9727 6.53906 34.8164 6.26562C 34.5273 5.75781 34.0449 5.50391 33.3691 5.50391C 32.8848 5.50391 32.4785 5.67969 32.1504 6.03125C 31.8223 6.37891 31.6484 6.82227 31.6289 7.36133L 35.1152 7.36133ZM 37.7109 2.97266L 38.7773 2.97266L 38.7773 4.72461L 39.7793 4.72461L 39.7793 5.58594L 38.7773 5.58594L 38.7773 9.68164C 38.7773 9.90039 38.8516 10.0469 39 10.1211C 39.082 10.1641 39.2188 10.1855 39.4102 10.1855C 39.4609 10.1855 39.5156 10.1855 39.5742 10.1855C 39.6328 10.1816 39.7012 10.1758 39.7793 10.168L 39.7793 11C 39.6582 11.0352 39.5312 11.0605 39.3984 11.0762C 39.2695 11.0918 39.1289 11.0996 38.9766 11.0996C 38.4844 11.0996 38.1504 10.9746 37.9746 10.7246C 37.7988 10.4707 37.7109 10.1426 37.7109 9.74023L 37.7109 5.58594L 36.8613 5.58594L 36.8613 4.72461L 37.7109 4.72461L 37.7109 2.97266Z"/>
<path id="path6_fill" fill-rule="evenodd" d="M 1.50246 0.526316C 0.947213 0.526316 0.5 0.995541 0.5 1.57901L 0.5 8.42099C 0.5 9.00189 0.949064 9.47368 1.50246 9.47368L 20.9975 9.47368C 21.5528 9.47368 22 9.00446 22 8.42099L 22 1.57901C 22 0.998107 21.5509 0.526316 20.9975 0.526316L 1.50246 0.526316ZM 1.50246 0L 20.9975 0C 21.8266 0 22.5 0.706948 22.5 1.57901L 22.5 8.42099C 22.5 9.29682 21.8273 10 20.9975 10L 1.50246 10C 0.67338 10 0 9.29305 0 8.42099L 0 1.57901C 0 0.703181 0.672674 0 1.50246 0Z"/>
<path id="path7_fill" fill-rule="evenodd" d="M 0.5 0C 0.223858 0 0 0.223858 0 0.5L 0 7.5C 0 7.77614 0.223858 8 0.5 8L 9 8L 9 0L 0.5 0Z"/>
<path id="path8_fill" fill-rule="evenodd" d="M 1.5 1.73228C 1.5 2.6139 0.848073 3.34325 0 3.46456L 0 0C 0.848073 0.121306 1.5 0.850659 1.5 1.73228Z"/>
<path id="path9_fill" d="M 14.4746 2.57422C 15.4121 2.57422 16.0645 2.81836 16.4316 3.30664C 16.8027 3.79102 16.9883 4.29102 16.9883 4.80664L 15.9453 4.80664C 15.8828 4.47461 15.7832 4.21484 15.6465 4.02734C 15.3926 3.67578 15.0078 3.5 14.4922 3.5C 13.9023 3.5 13.4336 3.77344 13.0859 4.32031C 12.7383 4.86328 12.5449 5.64258 12.5059 6.6582C 12.748 6.30273 13.0527 6.03711 13.4199 5.86133C 13.7559 5.70508 14.1309 5.62695 14.5449 5.62695C 15.248 5.62695 15.8613 5.85156 16.3848 6.30078C 16.9082 6.75 17.1699 7.41992 17.1699 8.31055C 17.1699 9.07227 16.9219 9.74805 16.4258 10.3379C 15.9297 10.9238 15.2227 11.2168 14.3047 11.2168C 13.5195 11.2168 12.8418 10.9199 12.2715 10.3262C 11.7012 9.72852 11.416 8.72461 11.416 7.31445C 11.416 6.27148 11.543 5.38672 11.7969 4.66016C 12.2852 3.26953 13.1777 2.57422 14.4746 2.57422ZM 14.3984 10.2793C 14.9531 10.2793 15.3672 10.0937 15.6406 9.72266C 15.918 9.34766 16.0566 8.90625 16.0566 8.39844C 16.0566 7.96875 15.9336 7.56055 15.6875 7.17383C 15.4414 6.7832 14.9941 6.58789 14.3457 6.58789C 13.8926 6.58789 13.4941 6.73828 13.1504 7.03906C 12.8105 7.33984 12.6406 7.79297 12.6406 8.39844C 12.6406 8.92969 12.7949 9.37695 13.1035 9.74023C 13.416 10.0996 13.8477 10.2793 14.3984 10.2793ZM 19.2383 8.97266C 19.2695 9.55469 19.4941 9.95703 19.9121 10.1797C 20.127 10.2969 20.3691 10.3555 20.6387 10.3555C 21.1426 10.3555 21.5723 10.1465 21.9277 9.72852C 22.2832 9.30664 22.5352 8.45313 22.6836 7.16797C 22.4492 7.53906 22.1582 7.80078 21.8105 7.95312C 21.4668 8.10156 21.0957 8.17578 20.6973 8.17578C 19.8887 8.17578 19.248 7.92383 18.7754 7.41992C 18.3066 6.91602 18.0723 6.26758 18.0723 5.47461C 18.0723 4.71289 18.3047 4.04297 18.7695 3.46484C 19.2344 2.88672 19.9199 2.59766 20.8262 2.59766C 22.0488 2.59766 22.8926 3.14844 23.3574 4.25C 23.6152 4.85547 23.7441 5.61328 23.7441 6.52344C 23.7441 7.55078 23.5898 8.46094 23.2812 9.25391C 22.7695 10.5742 21.9023 11.2344 20.6797 11.2344C 19.8594 11.2344 19.2363 11.0195 18.8105 10.5898C 18.3848 10.1602 18.1719 9.62109 18.1719 8.97266L 19.2383 8.97266ZM 20.8379 7.25C 21.2559 7.25 21.6367 7.11328 21.9805 6.83984C 22.3281 6.5625 22.502 6.08008 22.502 5.39258C 22.502 4.77539 22.3457 4.31641 22.0332 4.01562C 21.7246 3.71094 21.3301 3.55859 20.8496 3.55859C 20.334 3.55859 19.9238 3.73242 19.6191 4.08008C 19.3184 4.42383 19.168 4.88477 19.168 5.46289C 19.168 6.00977 19.3008 6.44531 19.5664 6.76953C 19.832 7.08984 20.2559 7.25 20.8379 7.25ZM 32.5039 6.92188C 33.0664 6.92188 33.5469 7.12109 33.9453 7.51953C 34.3438 7.91797 34.543 8.39844 34.543 8.96094C 34.543 9.52344 34.3438 10.0039 33.9453 10.4023C 33.5469 10.8008 33.0664 11 32.5039 11C 31.9375 11 31.4551 10.8008 31.0566 10.4023C 30.6582 10.0039 30.459 9.52344 30.459 8.96094C 30.459 8.39844 30.6582 7.91797 31.0566 7.51953C 31.4551 7.12109 31.9375 6.92188 32.5039 6.92188ZM 31.6543 2.64453L 32.3047 2.64453L 27.6113 11.2227L 26.9609 11.2227L 31.6543 2.64453ZM 26.75 6.11328C 27.0859 6.11328 27.3711 5.99609 27.6055 5.76172C 27.8438 5.52344 27.9629 5.23828 27.9629 4.90625C 27.9629 4.57422 27.8438 4.29102 27.6055 4.05664C 27.3711 3.81836 27.0859 3.69922 26.75 3.69922C 26.418 3.69922 26.1328 3.81641 25.8945 4.05078C 25.6602 4.28516 25.543 4.57031 25.543 4.90625C 25.543 5.23828 25.6602 5.52344 25.8945 5.76172C 26.1328 5.99609 26.418 6.11328 26.75 6.11328ZM 26.75 2.86133C 27.3164 2.86133 27.7988 3.0625 28.1973 3.46484C 28.5957 3.86328 28.7949 4.34375 28.7949 4.90625C 28.7949 5.46875 28.5957 5.94922 28.1973 6.34766C 27.7988 6.74609 27.3164 6.94531 26.75 6.94531C 26.1875 6.94531 25.707 6.74609 25.3086 6.34766C 24.9102 5.94922 24.7109 5.46875 24.7109 4.90625C 24.7109 4.34375 24.9102 3.86328 25.3086 3.46484C 25.707 3.0625 26.1875 2.86133 26.75 2.86133ZM 32.5039 10.168C 32.8359 10.168 33.1191 10.0508 33.3535 9.81641C 33.5918 9.57812 33.7109 9.29297 33.7109 8.96094C 33.7109 8.62891 33.5918 8.3457 33.3535 8.11133C 33.1191 7.87305 32.8359 7.75391 32.5039 7.75391C 32.168 7.75391 31.8809 7.87305 31.6426 8.11133C 31.4082 8.3457 31.291 8.62891 31.291 8.96094C 31.291 9.29297 31.4082 9.57812 31.6426 9.81641C 31.8809 10.0508 32.168 10.168 32.5039 10.168Z"/>
<path id="path10_fill" d="M 1.59375 8.97266C 1.625 9.55469 1.84961 9.95703 2.26758 10.1797C 2.48242 10.2969 2.72461 10.3555 2.99414 10.3555C 3.49805 10.3555 3.92773 10.1465 4.2832 9.72852C 4.63867 9.30664 4.89063 8.45313 5.03906 7.16797C 4.80469 7.53906 4.51367 7.80078 4.16602 7.95312C 3.82227 8.10156 3.45117 8.17578 3.05273 8.17578C 2.24414 8.17578 1.60352 7.92383 1.13086 7.41992C 0.662109 6.91602 0.427734 6.26758 0.427734 5.47461C 0.427734 4.71289 0.660156 4.04297 1.125 3.46484C 1.58984 2.88672 2.27539 2.59766 3.18164 2.59766C 4.4043 2.59766 5.24805 3.14844 5.71289 4.25C 5.9707 4.85547 6.09961 5.61328 6.09961 6.52344C 6.09961 7.55078 5.94531 8.46094 5.63672 9.25391C 5.125 10.5742 4.25781 11.2344 3.03516 11.2344C 2.21484 11.2344 1.5918 11.0195 1.16602 10.5898C 0.740234 10.1602 0.527344 9.62109 0.527344 8.97266L 1.59375 8.97266ZM 3.19336 7.25C 3.61133 7.25 3.99219 7.11328 4.33594 6.83984C 4.68359 6.5625 4.85742 6.08008 4.85742 5.39258C 4.85742 4.77539 4.70117 4.31641 4.38867 4.01562C 4.08008 3.71094 3.68555 3.55859 3.20508 3.55859C 2.68945 3.55859 2.2793 3.73242 1.97461 4.08008C 1.67383 4.42383 1.52344 4.88477 1.52344 5.46289C 1.52344 6.00977 1.65625 6.44531 1.92188 6.76953C 2.1875 7.08984 2.61133 7.25 3.19336 7.25ZM 8.00977 4.80664L 9.23438 4.80664L 9.23438 6.08398L 8.00977 6.08398L 8.00977 4.80664ZM 8.00977 9.72266L 9.23438 9.72266L 9.23438 11L 8.00977 11L 8.00977 9.72266ZM 13.9863 8.0293L 13.9863 4.22656L 11.2969 8.0293L 13.9863 8.0293ZM 14.0039 11L 14.0039 8.94922L 10.3242 8.94922L 10.3242 7.91797L 14.168 2.58594L 15.0586 2.58594L 15.0586 8.0293L 16.2949 8.0293L 16.2949 8.94922L 15.0586 8.94922L 15.0586 11L 14.0039 11ZM 17.0742 11C 17.1133 10.2773 17.2617 9.64844 17.5195 9.11328C 17.7813 8.57812 18.2891 8.0918 19.043 7.6543L 20.168 7.00391C 20.6719 6.71094 21.0254 6.46094 21.2285 6.25391C 21.5488 5.92969 21.709 5.55859 21.709 5.14062C 21.709 4.65234 21.5625 4.26562 21.2695 3.98047C 20.9766 3.69141 20.5859 3.54688 20.0977 3.54688C 19.375 3.54688 18.875 3.82031 18.5977 4.36719C 18.4492 4.66016 18.3672 5.06641 18.3516 5.58594L 17.2793 5.58594C 17.291 4.85547 17.4258 4.25977 17.6836 3.79883C 18.1406 2.98633 18.9473 2.58008 20.1035 2.58008C 21.0645 2.58008 21.7656 2.83984 22.207 3.35938C 22.6523 3.87891 22.875 4.45703 22.875 5.09375C 22.875 5.76563 22.6387 6.33984 22.166 6.81641C 21.8926 7.09375 21.4023 7.42969 20.6953 7.82422L 19.8926 8.26953C 19.5098 8.48047 19.209 8.68164 18.9902 8.87305C 18.5996 9.21289 18.3535 9.58984 18.252 10.0039L 22.834 10.0039L 22.834 11L 17.0742 11ZM 32.0508 7.47266L 30.7441 3.66992L 29.3555 7.47266L 32.0508 7.47266ZM 30.1348 2.39258L 31.4531 2.39258L 34.5762 11L 33.2988 11L 32.4258 8.42188L 29.0215 8.42188L 28.0898 11L 26.8945 11L 30.1348 2.39258ZM 35.6074 2.39258L 37.2773 2.39258L 39.75 9.66992L 42.2051 2.39258L 43.8574 2.39258L 43.8574 11L 42.75 11L 42.75 5.91992C 42.75 5.74414 42.7539 5.45312 42.7617 5.04688C 42.7695 4.64062 42.7734 4.20508 42.7734 3.74023L 40.3184 11L 39.1641 11L 36.6914 3.74023L 36.6914 4.00391C 36.6914 4.21484 36.6953 4.53711 36.7031 4.9707C 36.7148 5.40039 36.7207 5.7168 36.7207 5.91992L 36.7207 11L 35.6074 11L 35.6074 2.39258Z"/>
</defs>
</svg>
