<svg width="44" height="10" viewBox="0 0 44 10" version="1.1" xmlns="http://www.w3.org/2000/svg" xmlns:xlink="http://www.w3.org/1999/xlink">
<title>9:42 AM</title>
<desc>Created using Figma</desc>
<g id="Canvas" transform="translate(25 278)">
<g id="9:42 AM">
<use xlink:href="#path0_fill" transform="translate(-25 -279.5)"/>
</g>
</g>
<defs>
<path id="path0_fill" d="M 1.59375 8.97266C 1.625 9.55469 1.84961 9.95703 2.26758 10.1797C 2.48242 10.2969 2.72461 10.3555 2.99414 10.3555C 3.49805 10.3555 3.92773 10.1465 4.2832 9.72852C 4.63867 9.30664 4.89063 8.45313 5.03906 7.16797C 4.80469 7.53906 4.51367 7.80078 4.16602 7.95312C 3.82227 8.10156 3.45117 8.17578 3.05273 8.17578C 2.24414 8.17578 1.60352 7.92383 1.13086 7.41992C 0.662109 6.91602 0.427734 6.26758 0.427734 5.47461C 0.427734 4.71289 0.660156 4.04297 1.125 3.46484C 1.58984 2.88672 2.27539 2.59766 3.18164 2.59766C 4.4043 2.59766 5.24805 3.14844 5.71289 4.25C 5.9707 4.85547 6.09961 5.61328 6.09961 6.52344C 6.09961 7.55078 5.94531 8.46094 5.63672 9.25391C 5.125 10.5742 4.25781 11.2344 3.03516 11.2344C 2.21484 11.2344 1.5918 11.0195 1.16602 10.5898C 0.740234 10.1602 0.527344 9.62109 0.527344 8.97266L 1.59375 8.97266ZM 3.19336 7.25C 3.61133 7.25 3.99219 7.11328 4.33594 6.83984C 4.68359 6.5625 4.85742 6.08008 4.85742 5.39258C 4.85742 4.77539 4.70117 4.31641 4.38867 4.01562C 4.08008 3.71094 3.68555 3.55859 3.20508 3.55859C 2.68945 3.55859 2.2793 3.73242 1.97461 4.08008C 1.67383 4.42383 1.52344 4.88477 1.52344 5.46289C 1.52344 6.00977 1.65625 6.44531 1.92188 6.76953C 2.1875 7.08984 2.61133 7.25 3.19336 7.25ZM 8.00977 4.80664L 9.23438 4.80664L 9.23438 6.08398L 8.00977 6.08398L 8.00977 4.80664ZM 8.00977 9.72266L 9.23438 9.72266L 9.23438 11L 8.00977 11L 8.00977 9.72266ZM 13.9863 8.0293L 13.9863 4.22656L 11.2969 8.0293L 13.9863 8.0293ZM 14.0039 11L 14.0039 8.94922L 10.3242 8.94922L 10.3242 7.91797L 14.168 2.58594L 15.0586 2.58594L 15.0586 8.0293L 16.2949 8.0293L 16.2949 8.94922L 15.0586 8.94922L 15.0586 11L 14.0039 11ZM 17.0742 11C 17.1133 10.2773 17.2617 9.64844 17.5195 9.11328C 17.7813 8.57812 18.2891 8.0918 19.043 7.6543L 20.168 7.00391C 20.6719 6.71094 21.0254 6.46094 21.2285 6.25391C 21.5488 5.92969 21.709 5.55859 21.709 5.14062C 21.709 4.65234 21.5625 4.26562 21.2695 3.98047C 20.9766 3.69141 20.5859 3.54688 20.0977 3.54688C 19.375 3.54688 18.875 3.82031 18.5977 4.36719C 18.4492 4.66016 18.3672 5.06641 18.3516 5.58594L 17.2793 5.58594C 17.291 4.85547 17.4258 4.25977 17.6836 3.79883C 18.1406 2.98633 18.9473 2.58008 20.1035 2.58008C 21.0645 2.58008 21.7656 2.83984 22.207 3.35938C 22.6523 3.87891 22.875 4.45703 22.875 5.09375C 22.875 5.76563 22.6387 6.33984 22.166 6.81641C 21.8926 7.09375 21.4023 7.42969 20.6953 7.82422L 19.8926 8.26953C 19.5098 8.48047 19.209 8.68164 18.9902 8.87305C 18.5996 9.21289 18.3535 9.58984 18.252 10.0039L 22.834 10.0039L 22.834 11L 17.0742 11ZM 32.0508 7.47266L 30.7441 3.66992L 29.3555 7.47266L 32.0508 7.47266ZM 30.1348 2.39258L 31.4531 2.39258L 34.5762 11L 33.2988 11L 32.4258 8.42188L 29.0215 8.42188L 28.0898 11L 26.8945 11L 30.1348 2.39258ZM 35.6074 2.39258L 37.2773 2.39258L 39.75 9.66992L 42.2051 2.39258L 43.8574 2.39258L 43.8574 11L 42.75 11L 42.75 5.91992C 42.75 5.74414 42.7539 5.45312 42.7617 5.04688C 42.7695 4.64062 42.7734 4.20508 42.7734 3.74023L 40.3184 11L 39.1641 11L 36.6914 3.74023L 36.6914 4.00391C 36.6914 4.21484 36.6953 4.53711 36.7031 4.9707C 36.7148 5.40039 36.7207 5.7168 36.7207 5.91992L 36.7207 11L 35.6074 11L 35.6074 2.39258Z"/>
</defs>
</svg>
