<svg width="89" height="18" viewBox="0 0 89 18" version="1.1" xmlns="http://www.w3.org/2000/svg" xmlns:xlink="http://www.w3.org/1999/xlink">
<title>Frame 8</title>
<desc>Created using Figma</desc>
<g id="Canvas" transform="translate(-69 282)">
<clipPath id="clip-0" clip-rule="evenodd">
<path d="M 69.6416 -282L 157.642 -282L 157.642 -264L 69.6416 -264L 69.6416 -282Z" fill="#FFFFFF"/>
</clipPath>
<g id="Frame 8" clip-path="url(#clip-0)">
<g id="Group">
<g id="Shape">
<use xlink:href="#path0_fill" transform="translate(129.5 -277.5)"/>
</g>
<g id="Charge">
<use xlink:href="#path1_fill" transform="translate(130.5 -276.5)"/>
</g>
<g id="+">
<use xlink:href="#path2_fill" transform="translate(152.5 -274)"/>
</g>
</g>
<g id="42%">
<use xlink:href="#path3_fill" transform="translate(91 -280)"/>
</g>
</g>
</g>
<defs>
<path id="path0_fill" fill-rule="evenodd" d="M 1.50246 0.526316C 0.947213 0.526316 0.5 0.995541 0.5 1.57901L 0.5 8.42099C 0.5 9.00189 0.949064 9.47368 1.50246 9.47368L 20.9975 9.47368C 21.5528 9.47368 22 9.00446 22 8.42099L 22 1.57901C 22 0.998107 21.5509 0.526316 20.9975 0.526316L 1.50246 0.526316ZM 1.50246 0L 20.9975 0C 21.8266 0 22.5 0.706948 22.5 1.57901L 22.5 8.42099C 22.5 9.29682 21.8273 10 20.9975 10L 1.50246 10C 0.67338 10 0 9.29305 0 8.42099L 0 1.57901C 0 0.703181 0.672674 0 1.50246 0Z"/>
<path id="path1_fill" fill-rule="evenodd" d="M 0.5 0C 0.223858 0 0 0.223858 0 0.5L 0 7.5C 0 7.77614 0.223858 8 0.5 8L 9 8L 9 0L 0.5 0Z"/>
<path id="path2_fill" fill-rule="evenodd" d="M 1.5 1.73228C 1.5 2.6139 0.848073 3.34325 0 3.46456L 0 0C 0.848073 0.121306 1.5 0.850659 1.5 1.73228Z"/>
<path id="path3_fill" d="M 14.4746 2.57422C 15.4121 2.57422 16.0645 2.81836 16.4316 3.30664C 16.8027 3.79102 16.9883 4.29102 16.9883 4.80664L 15.9453 4.80664C 15.8828 4.47461 15.7832 4.21484 15.6465 4.02734C 15.3926 3.67578 15.0078 3.5 14.4922 3.5C 13.9023 3.5 13.4336 3.77344 13.0859 4.32031C 12.7383 4.86328 12.5449 5.64258 12.5059 6.6582C 12.748 6.30273 13.0527 6.03711 13.4199 5.86133C 13.7559 5.70508 14.1309 5.62695 14.5449 5.62695C 15.248 5.62695 15.8613 5.85156 16.3848 6.30078C 16.9082 6.75 17.1699 7.41992 17.1699 8.31055C 17.1699 9.07227 16.9219 9.74805 16.4258 10.3379C 15.9297 10.9238 15.2227 11.2168 14.3047 11.2168C 13.5195 11.2168 12.8418 10.9199 12.2715 10.3262C 11.7012 9.72852 11.416 8.72461 11.416 7.31445C 11.416 6.27148 11.543 5.38672 11.7969 4.66016C 12.2852 3.26953 13.1777 2.57422 14.4746 2.57422ZM 14.3984 10.2793C 14.9531 10.2793 15.3672 10.0937 15.6406 9.72266C 15.918 9.34766 16.0566 8.90625 16.0566 8.39844C 16.0566 7.96875 15.9336 7.56055 15.6875 7.17383C 15.4414 6.7832 14.9941 6.58789 14.3457 6.58789C 13.8926 6.58789 13.4941 6.73828 13.1504 7.03906C 12.8105 7.33984 12.6406 7.79297 12.6406 8.39844C 12.6406 8.92969 12.7949 9.37695 13.1035 9.74023C 13.416 10.0996 13.8477 10.2793 14.3984 10.2793ZM 19.2383 8.97266C 19.2695 9.55469 19.4941 9.95703 19.9121 10.1797C 20.127 10.2969 20.3691 10.3555 20.6387 10.3555C 21.1426 10.3555 21.5723 10.1465 21.9277 9.72852C 22.2832 9.30664 22.5352 8.45313 22.6836 7.16797C 22.4492 7.53906 22.1582 7.80078 21.8105 7.95312C 21.4668 8.10156 21.0957 8.17578 20.6973 8.17578C 19.8887 8.17578 19.248 7.92383 18.7754 7.41992C 18.3066 6.91602 18.0723 6.26758 18.0723 5.47461C 18.0723 4.71289 18.3047 4.04297 18.7695 3.46484C 19.2344 2.88672 19.9199 2.59766 20.8262 2.59766C 22.0488 2.59766 22.8926 3.14844 23.3574 4.25C 23.6152 4.85547 23.7441 5.61328 23.7441 6.52344C 23.7441 7.55078 23.5898 8.46094 23.2812 9.25391C 22.7695 10.5742 21.9023 11.2344 20.6797 11.2344C 19.8594 11.2344 19.2363 11.0195 18.8105 10.5898C 18.3848 10.1602 18.1719 9.62109 18.1719 8.97266L 19.2383 8.97266ZM 20.8379 7.25C 21.2559 7.25 21.6367 7.11328 21.9805 6.83984C 22.3281 6.5625 22.502 6.08008 22.502 5.39258C 22.502 4.77539 22.3457 4.31641 22.0332 4.01562C 21.7246 3.71094 21.3301 3.55859 20.8496 3.55859C 20.334 3.55859 19.9238 3.73242 19.6191 4.08008C 19.3184 4.42383 19.168 4.88477 19.168 5.46289C 19.168 6.00977 19.3008 6.44531 19.5664 6.76953C 19.832 7.08984 20.2559 7.25 20.8379 7.25ZM 32.5039 6.92188C 33.0664 6.92188 33.5469 7.12109 33.9453 7.51953C 34.3438 7.91797 34.543 8.39844 34.543 8.96094C 34.543 9.52344 34.3438 10.0039 33.9453 10.4023C 33.5469 10.8008 33.0664 11 32.5039 11C 31.9375 11 31.4551 10.8008 31.0566 10.4023C 30.6582 10.0039 30.459 9.52344 30.459 8.96094C 30.459 8.39844 30.6582 7.91797 31.0566 7.51953C 31.4551 7.12109 31.9375 6.92188 32.5039 6.92188ZM 31.6543 2.64453L 32.3047 2.64453L 27.6113 11.2227L 26.9609 11.2227L 31.6543 2.64453ZM 26.75 6.11328C 27.0859 6.11328 27.3711 5.99609 27.6055 5.76172C 27.8438 5.52344 27.9629 5.23828 27.9629 4.90625C 27.9629 4.57422 27.8438 4.29102 27.6055 4.05664C 27.3711 3.81836 27.0859 3.69922 26.75 3.69922C 26.418 3.69922 26.1328 3.81641 25.8945 4.05078C 25.6602 4.28516 25.543 4.57031 25.543 4.90625C 25.543 5.23828 25.6602 5.52344 25.8945 5.76172C 26.1328 5.99609 26.418 6.11328 26.75 6.11328ZM 26.75 2.86133C 27.3164 2.86133 27.7988 3.0625 28.1973 3.46484C 28.5957 3.86328 28.7949 4.34375 28.7949 4.90625C 28.7949 5.46875 28.5957 5.94922 28.1973 6.34766C 27.7988 6.74609 27.3164 6.94531 26.75 6.94531C 26.1875 6.94531 25.707 6.74609 25.3086 6.34766C 24.9102 5.94922 24.7109 5.46875 24.7109 4.90625C 24.7109 4.34375 24.9102 3.86328 25.3086 3.46484C 25.707 3.0625 26.1875 2.86133 26.75 2.86133ZM 32.5039 10.168C 32.8359 10.168 33.1191 10.0508 33.3535 9.81641C 33.5918 9.57812 33.7109 9.29297 33.7109 8.96094C 33.7109 8.62891 33.5918 8.3457 33.3535 8.11133C 33.1191 7.87305 32.8359 7.75391 32.5039 7.75391C 32.168 7.75391 31.8809 7.87305 31.6426 8.11133C 31.4082 8.3457 31.291 8.62891 31.291 8.96094C 31.291 9.29297 31.4082 9.57812 31.6426 9.81641C 31.8809 10.0508 32.168 10.168 32.5039 10.168Z"/>
</defs>
</svg>
